<?xml version="1.0" encoding="utf-8"?>
<!-- Generator: Adobe Illustrator 16.0.0, SVG Export Plug-In . SVG Version: 6.00 Build 0)  -->
<!DOCTYPE svg PUBLIC "-//W3C//DTD SVG 1.1//EN" "http://www.w3.org/Graphics/SVG/1.1/DTD/svg11.dtd">
<svg version="1.1" id="Layer_1" xmlns="http://www.w3.org/2000/svg" xmlns:xlink="http://www.w3.org/1999/xlink" x="0px" y="0px"
	 width="126px" height="126px" viewBox="0 0 126 126" enable-background="new 0 0 126 126" xml:space="preserve">
<g>
	<path fill="#231F20" d="M61.513,9.492c-29.395,0-53.225,23.83-53.225,53.226s23.83,53.226,53.225,53.226
		c29.396,0,53.227-23.83,53.227-53.226S90.909,9.492,61.513,9.492z M61.513,109.747c-25.932,0-47.029-21.097-47.029-47.029
		c0-25.932,21.098-47.029,47.029-47.029s47.029,21.098,47.029,47.029C108.542,88.65,87.444,109.747,61.513,109.747z"/>
	<path fill="#231F20" d="M87.535,41.013c0.608-0.008,1.249-0.319,1.919-0.934c0.662-0.607,1.023-1.205,1.084-1.794
		s-0.129-1.124-0.57-1.605s-0.961-0.718-1.561-0.71s-1.232,0.315-1.897,0.925c-0.655,0.6-1.013,1.205-1.073,1.817
		c-0.063,0.611,0.121,1.15,0.547,1.615C86.409,40.794,86.927,41.023,87.535,41.013z"/>
	<path fill="#231F20" d="M61.513,40.801c9.529,0,17.635,6.084,20.652,14.578h24.613C103.255,33.572,84.3,16.863,61.513,16.863
		S19.771,33.572,16.247,55.379H40.86C43.878,46.885,51.983,40.801,61.513,40.801z M94.603,40.398l0.759,1.341l-2.974,5.373
		l4.555-2.58l0.726,1.279l-6.823,3.864l-0.783-1.383l2.893-5.27l-4.449,2.52l-0.725-1.279L94.603,40.398z M87.093,34.634
		c0.416-0.139,0.844-0.201,1.287-0.188c0.441,0.013,0.844,0.104,1.205,0.271c0.482,0.222,0.938,0.566,1.369,1.037
		c0.78,0.853,1.141,1.776,1.08,2.772c-0.061,0.994-0.561,1.924-1.502,2.785c-0.934,0.855-1.896,1.271-2.89,1.245
		c-0.991-0.024-1.876-0.462-2.653-1.312c-0.788-0.859-1.151-1.783-1.092-2.771c0.061-0.988,0.551-1.904,1.471-2.746
		C85.958,35.189,86.532,34.824,87.093,34.634z M84.406,30.033l-0.679,1.14l-3.635-2.165L79.204,30.5l3.381,2.016l-0.676,1.135
		l-3.383-2.016l-1.09,1.834l3.762,2.242l-0.677,1.135l-5.122-3.053l4.012-6.736L84.406,30.033z M70.042,23.667l2.258,0.721
		l-0.271,5.527l2.967-4.666l2.262,0.722l-2.385,7.47l-1.4-0.447l1.877-5.881l-3.36,5.406l-1.452-0.463l0.399-6.352l-1.876,5.879
		l-1.4-0.447L70.042,23.667z M56.573,23.074l1.369,5.341l1.244-5.433l1.882-0.066l1.565,5.426l1.011-5.516l1.594-0.055l-1.63,7.902
		l-1.678,0.059l-1.766-5.804l-1.352,5.913l-1.715,0.06l-2.146-7.771L56.573,23.074z M47.085,27.572
		c0.051-0.434,0.178-0.848,0.379-1.242c0.2-0.395,0.455-0.719,0.76-0.974c0.406-0.343,0.914-0.607,1.522-0.796
		c1.104-0.342,2.095-0.271,2.968,0.209c0.873,0.479,1.5,1.33,1.876,2.549c0.374,1.209,0.338,2.258-0.108,3.144
		c-0.447,0.886-1.221,1.499-2.32,1.839c-1.113,0.345-2.104,0.279-2.973-0.197c-0.867-0.478-1.484-1.312-1.854-2.504
		C47.099,28.835,47.017,28.161,47.085,27.572z M41.362,28.469l3.147,5.636l3.437-1.919l0.645,1.153l-4.819,2.691l-3.791-6.79
		L41.362,28.469z M31.776,50.742l-7.019-3.495l2.396-4.812l1.188,0.592l-1.691,3.395l1.662,0.827l1.459-2.931l1.188,0.592
		l-1.46,2.93l2.982,1.486L31.776,50.742z M36.616,42.904c-0.726,0.912-1.582,1.416-2.566,1.512
		c-0.985,0.096-1.966-0.245-2.942-1.021c-0.625-0.498-1.075-1.008-1.351-1.533c-0.201-0.389-0.33-0.802-0.387-1.24
		c-0.057-0.439-0.03-0.85,0.078-1.233c0.143-0.511,0.412-1.016,0.811-1.516c0.719-0.903,1.576-1.403,2.568-1.5
		s1.988,0.253,2.986,1.048c0.99,0.788,1.551,1.674,1.683,2.657C37.626,41.06,37.333,42.002,36.616,42.904z M34.274,33.695
		l1.22-1.008l4.111,4.977l3.035-2.508l0.841,1.018l-4.255,3.517L34.274,33.695z"/>
	<path fill="#231F20" d="M50.062,30.814c0.527,0.316,1.092,0.382,1.694,0.195c0.604-0.187,1.031-0.557,1.284-1.11
		c0.252-0.554,0.244-1.265-0.023-2.134c-0.266-0.857-0.652-1.441-1.16-1.746c-0.506-0.307-1.071-0.363-1.695-0.171
		c-0.623,0.192-1.059,0.562-1.309,1.107c-0.25,0.545-0.24,1.249,0.025,2.11C49.14,29.915,49.535,30.498,50.062,30.814z"/>
	<path fill="#231F20" d="M34.765,38.676c-0.702-0.56-1.35-0.823-1.941-0.79c-0.59,0.033-1.089,0.305-1.496,0.816
		c-0.406,0.51-0.559,1.061-0.457,1.652c0.102,0.591,0.505,1.167,1.212,1.729c0.694,0.553,1.349,0.812,1.962,0.775
		c0.613-0.035,1.117-0.3,1.51-0.793c0.395-0.494,0.539-1.041,0.436-1.641S35.478,39.243,34.765,38.676z"/>
	<path fill="#231F20" d="M65.624,94.281c0.291-0.066,0.512-0.193,0.662-0.381c0.151-0.188,0.211-0.42,0.182-0.695
		c-0.029-0.264-0.125-0.471-0.289-0.619c-0.164-0.15-0.391-0.227-0.682-0.229c-0.174-0.002-0.666,0.041-1.479,0.131l-0.989,0.107
		l0.216,1.975l1.129-0.123C65.048,94.375,65.464,94.318,65.624,94.281z"/>
	<polygon fill="#231F20" points="41.208,89.546 42.295,86.326 39.388,88.072 	"/>
	<path fill="#231F20" d="M66.335,95.794c-0.244-0.055-0.758-0.041-1.543,0.045L63.4,95.992l0.249,2.283l1.596-0.174
		c0.621-0.068,1.014-0.129,1.178-0.182c0.25-0.074,0.447-0.211,0.588-0.41c0.143-0.197,0.195-0.447,0.163-0.75
		c-0.028-0.258-0.114-0.469-0.257-0.633C66.772,95.96,66.579,95.851,66.335,95.794z"/>
	<path fill="#231F20" d="M61.513,84.634c-9.529,0-17.635-6.085-20.652-14.579H16.247c3.523,21.809,22.479,38.518,45.266,38.518
		s41.742-16.709,45.266-38.518H82.165C79.147,78.549,71.042,84.634,61.513,84.634z M31.677,84.656l-1.064-1.369l6.778-5.275
		l3.617,4.646l-1.146,0.893l-2.552-3.277l-1.605,1.248l2.203,2.83l-1.146,0.893l-2.203-2.83L31.677,84.656z M41.55,94.197
		l-1.465-1.186l0.645-1.99l-2.668-2.16l-1.779,1.07l-1.43-1.158l8.008-4.57l1.424,1.156L41.55,94.197z M52.599,92.423l-1.738-0.307
		c0.084-0.449,0.029-0.855-0.162-1.221c-0.193-0.365-0.502-0.639-0.924-0.822c-0.586-0.254-1.15-0.25-1.695,0.012
		c-0.546,0.262-1.021,0.861-1.43,1.801c-0.433,0.996-0.561,1.783-0.387,2.361c0.176,0.578,0.549,0.992,1.122,1.24
		c0.423,0.184,0.845,0.207,1.267,0.07c0.42-0.137,0.822-0.465,1.206-0.984l1.331,1.16c-0.61,0.758-1.281,1.225-2.013,1.404
		c-0.731,0.178-1.519,0.084-2.364-0.283c-1.047-0.455-1.752-1.186-2.115-2.193c-0.363-1.006-0.275-2.129,0.262-3.369
		c0.57-1.313,1.351-2.184,2.342-2.615c0.994-0.432,2.041-0.408,3.145,0.072c0.963,0.418,1.623,1.041,1.979,1.873
		C52.634,91.115,52.692,91.716,52.599,92.423z M60.217,92.755l-4.581-0.705l-0.289,1.883l4.262,0.654l-0.219,1.432l-4.263-0.656
		l-0.354,2.311l4.742,0.729l-0.219,1.432l-6.459-0.992l1.307-8.49l6.294,0.967L60.217,92.755z M68.817,97.808
		c-0.141,0.387-0.354,0.707-0.643,0.959c-0.289,0.254-0.66,0.432-1.112,0.531c-0.284,0.063-0.976,0.158-2.073,0.287l-2.906,0.316
		l-0.933-8.539l3.413-0.373c0.676-0.074,1.183-0.1,1.521-0.08c0.339,0.02,0.647,0.105,0.93,0.254
		c0.282,0.15,0.526,0.365,0.733,0.643s0.331,0.602,0.371,0.971c0.043,0.4-0.023,0.779-0.203,1.137
		c-0.179,0.357-0.443,0.639-0.795,0.846c0.537,0.096,0.966,0.311,1.285,0.645s0.506,0.748,0.561,1.242
		C69.008,97.033,68.958,97.421,68.817,97.808z M77.97,94.869c-0.4,1.01-1.185,1.754-2.352,2.232c-1.183,0.484-2.27,0.51-3.264,0.074
		c-0.992-0.436-1.748-1.285-2.268-2.549c-0.332-0.811-0.488-1.541-0.473-2.188c0.016-0.48,0.113-0.945,0.294-1.395
		s0.425-0.828,0.733-1.137c0.41-0.412,0.938-0.752,1.585-1.016c1.171-0.48,2.257-0.502,3.257-0.063
		c1.002,0.438,1.768,1.303,2.297,2.598C78.308,92.71,78.37,93.857,77.97,94.869z M83.815,80.441l3.122,2.191l-1.11-5.059l1.338-1.91
		l0.883,4.57l6.252,0.219l-1.289,1.838l-4.656-0.383l0.367,1.977l2.125,1.49l-0.995,1.42l-7.032-4.934L83.815,80.441z M85.329,85.57
		c0.871,1.08,1.258,2.162,1.162,3.244c-0.097,1.084-0.635,2.02-1.619,2.811c-0.994,0.803-2.029,1.135-3.105,1.002
		c-1.076-0.135-2.043-0.734-2.9-1.799c-0.549-0.682-0.908-1.336-1.076-1.963c-0.122-0.463-0.16-0.936-0.115-1.418
		s0.172-0.916,0.379-1.299c0.275-0.512,0.685-0.988,1.229-1.426c0.985-0.795,2.021-1.123,3.104-0.988S84.453,84.48,85.329,85.57z"/>
	<path fill="#231F20" d="M74.671,90.277c-0.582-0.285-1.205-0.291-1.866-0.021c-0.661,0.271-1.101,0.717-1.319,1.336
		c-0.219,0.621-0.143,1.389,0.234,2.303c0.367,0.898,0.855,1.496,1.461,1.791c0.607,0.293,1.229,0.309,1.869,0.047
		c0.639-0.264,1.07-0.707,1.291-1.336c0.221-0.631,0.143-1.406-0.234-2.326C75.733,91.158,75.255,90.56,74.671,90.277z"/>
	<path fill="#231F20" d="M80.227,85.865c-0.557,0.449-0.853,1.002-0.886,1.656c-0.033,0.656,0.262,1.371,0.881,2.141
		c0.609,0.758,1.247,1.189,1.912,1.299c0.664,0.109,1.266-0.053,1.805-0.486s0.824-0.982,0.857-1.648
		c0.033-0.668-0.264-1.387-0.889-2.164c-0.617-0.766-1.246-1.203-1.885-1.309C81.382,85.246,80.784,85.417,80.227,85.865z"/>
	<polygon fill="#231F20" points="94.716,66.964 96.476,68.724 98.233,66.964 100.722,66.964 100.722,64.477 102.481,62.717 
		100.722,60.958 100.722,58.47 98.233,58.47 96.476,56.71 94.716,58.47 92.228,58.47 92.228,60.958 90.468,62.717 92.228,64.477 
		92.228,66.964 	"/>
	<polygon fill="#231F20" points="24.091,66.964 25.851,68.724 27.608,66.964 30.097,66.964 30.097,64.477 31.856,62.717 
		30.097,60.958 30.097,58.47 27.608,58.47 25.851,56.71 24.091,58.47 21.603,58.47 21.603,60.958 19.843,62.717 21.603,64.477 
		21.603,66.964 	"/>
	<path fill="#231F20" d="M64.11,80.248c0,0,0-9.666,0-17.518h4.914l0.635-6.189H64.11v-3.639c0-1.367,0.906-1.686,1.543-1.686
		s3.916,0,3.916,0v-6.008l-5.393-0.021c-5.986,0-7.349,4.48-7.349,7.349v4.005h-3.462v6.189h3.462c0,7.946,0,17.518,0,17.518H64.11z
		"/>
</g>
</svg>
