<?xml version="1.0" encoding="utf-8"?>
<!-- Generator: Adobe Illustrator 16.0.0, SVG Export Plug-In . SVG Version: 6.00 Build 0)  -->
<!DOCTYPE svg PUBLIC "-//W3C//DTD SVG 1.1//EN" "http://www.w3.org/Graphics/SVG/1.1/DTD/svg11.dtd">
<svg version="1.1" id="Layer_1" xmlns="http://www.w3.org/2000/svg" xmlns:xlink="http://www.w3.org/1999/xlink" x="0px" y="0px"
	 width="126px" height="126px" viewBox="0 0 126 126" enable-background="new 0 0 126 126" xml:space="preserve">
<g>
	<path d="M62.805,9.774C33.409,9.774,9.579,33.604,9.579,63s23.83,53.226,53.226,53.226S116.03,92.396,116.03,63
		S92.2,9.774,62.805,9.774z M62.805,110.03c-25.932,0-47.029-21.098-47.029-47.03c0-25.932,21.098-47.029,47.029-47.029
		S109.834,37.068,109.834,63C109.834,88.933,88.736,110.03,62.805,110.03z"/>
	<path d="M62.805,41.084c9.529,0,17.635,6.084,20.652,14.578h24.613c-3.523-21.808-22.479-38.517-45.266-38.517
		S21.063,33.854,17.539,55.662h24.613C45.17,47.168,53.275,41.084,62.805,41.084z M95.861,40.655l0.759,1.34l-2.975,5.373
		l4.557-2.581l0.725,1.28l-6.823,3.864l-0.783-1.382l2.893-5.27l-4.449,2.52l-0.725-1.279L95.861,40.655z M88.353,34.891
		c0.415-0.138,0.844-0.201,1.286-0.188c0.441,0.014,0.844,0.104,1.205,0.271c0.483,0.221,0.939,0.566,1.37,1.037
		c0.78,0.852,1.141,1.776,1.08,2.772c-0.06,0.995-0.56,1.924-1.502,2.786c-0.934,0.855-1.896,1.27-2.889,1.245
		c-0.992-0.025-1.876-0.462-2.654-1.312c-0.787-0.859-1.15-1.783-1.09-2.771c0.059-0.987,0.55-1.903,1.471-2.746
		C87.216,35.445,87.791,35.081,88.353,34.891z M85.666,30.29l-0.679,1.14l-3.634-2.166l-0.89,1.494l3.382,2.014l-0.675,1.135
		l-3.383-2.015l-1.092,1.834l3.763,2.241l-0.677,1.135l-5.123-3.052l4.013-6.736L85.666,30.29z M71.302,23.924l2.257,0.721
		l-0.271,5.527l2.967-4.667l2.263,0.722l-2.386,7.469l-1.4-0.447l1.877-5.88l-3.36,5.407l-1.452-0.463l0.399-6.352l-1.876,5.879
		l-1.401-0.447L71.302,23.924z M57.832,23.331l1.371,5.341l1.243-5.433l1.882-0.065l1.565,5.426l1.011-5.516l1.593-0.056
		l-1.629,7.902l-1.679,0.059l-1.765-5.803l-1.35,5.913l-1.716,0.06l-2.145-7.771L57.832,23.331z M48.343,27.829
		c0.052-0.435,0.178-0.848,0.379-1.243c0.201-0.395,0.456-0.719,0.761-0.974c0.405-0.341,0.914-0.606,1.522-0.795
		c1.104-0.341,2.093-0.271,2.968,0.208c0.873,0.48,1.499,1.33,1.875,2.549c0.374,1.209,0.338,2.257-0.108,3.143
		c-0.447,0.887-1.221,1.5-2.32,1.84c-1.113,0.344-2.104,0.278-2.973-0.198c-0.867-0.477-1.484-1.311-1.853-2.504
		C48.359,29.093,48.275,28.417,48.343,27.829z M42.621,28.726l3.148,5.636l3.437-1.919l0.644,1.153l-4.819,2.691l-3.792-6.79
		L42.621,28.726z M33.035,51l-7.019-3.497l2.396-4.811l1.187,0.592l-1.691,3.394l1.661,0.828l1.459-2.929l1.189,0.591l-1.459,2.93
		l2.982,1.486L33.035,51z M37.875,43.161c-0.726,0.913-1.581,1.417-2.566,1.512c-0.985,0.095-1.966-0.245-2.942-1.023
		c-0.625-0.497-1.076-1.008-1.351-1.533c-0.201-0.388-0.331-0.802-0.388-1.24c-0.055-0.439-0.029-0.85,0.08-1.233
		c0.143-0.511,0.412-1.016,0.811-1.516c0.719-0.904,1.575-1.404,2.567-1.5c0.992-0.096,1.988,0.253,2.987,1.048
		c0.99,0.789,1.551,1.675,1.682,2.658C38.886,41.317,38.592,42.26,37.875,43.161z M35.533,33.952l1.22-1.008l4.111,4.977
		l3.035-2.508l0.841,1.018l-4.255,3.516L35.533,33.952z"/>
	<path d="M51.321,31.071c0.526,0.317,1.092,0.382,1.694,0.196c0.604-0.187,1.031-0.557,1.284-1.111
		c0.252-0.554,0.244-1.265-0.023-2.133c-0.266-0.858-0.652-1.441-1.159-1.747c-0.508-0.306-1.072-0.363-1.695-0.17
		c-0.625,0.192-1.06,0.561-1.31,1.107c-0.25,0.545-0.24,1.249,0.025,2.111C50.399,30.172,50.793,30.754,51.321,31.071z"/>
	<path d="M36.024,38.933c-0.702-0.559-1.35-0.822-1.941-0.789c-0.591,0.033-1.09,0.305-1.496,0.815
		c-0.406,0.511-0.56,1.061-0.458,1.653c0.102,0.591,0.505,1.167,1.212,1.729c0.694,0.553,1.348,0.812,1.962,0.776
		c0.613-0.035,1.117-0.3,1.51-0.794c0.394-0.493,0.538-1.041,0.435-1.64C37.144,40.083,36.736,39.499,36.024,38.933z"/>
	<path d="M88.794,41.27c0.609-0.008,1.248-0.319,1.918-0.933c0.663-0.607,1.024-1.206,1.084-1.794
		c0.061-0.589-0.13-1.125-0.57-1.606c-0.441-0.481-0.961-0.718-1.562-0.71c-0.6,0.008-1.232,0.316-1.896,0.925
		c-0.656,0.599-1.014,1.205-1.074,1.817c-0.062,0.612,0.122,1.15,0.547,1.616C87.669,41.051,88.186,41.279,88.794,41.27z"/>
	<polygon points="56.902,96.125 59.222,96.453 58.497,93.131 	"/>
	<polygon points="84.943,88.329 82.011,86.609 83.128,89.813 	"/>
	<path d="M76.489,90.017c-0.214-0.1-0.458-0.114-0.734-0.043c-0.136,0.04-0.526,0.202-1.168,0.487l-1.237,0.549l0.884,1.992
		l1.172-0.521c0.761-0.338,1.221-0.581,1.383-0.729c0.16-0.147,0.259-0.324,0.296-0.529c0.038-0.203,0.003-0.424-0.101-0.66
		C76.867,90.299,76.702,90.116,76.489,90.017z"/>
	<path d="M62.805,84.917c-9.529,0-17.635-6.084-20.652-14.58H17.539c3.523,21.811,22.479,38.52,45.266,38.52
		s41.742-16.709,45.266-38.52H83.457C80.439,78.833,72.334,84.917,62.805,84.917z M30.522,81.13l7.394-4.372l0.883,1.493
		l-7.394,4.372L30.522,81.13z M35.999,88.591l1.946-6.292l-4.222,3.682l-1.059-1.214l6.474-5.646l1.109,1.272l-2.013,6.42
		l4.323-3.771l1.059,1.215l-6.473,5.646L35.999,88.591z M48.123,90.358l-1.48-0.907c0.186-0.408,0.232-0.76,0.137-1.057
		c-0.094-0.297-0.343-0.582-0.748-0.854c-0.417-0.282-0.802-0.417-1.155-0.405c-0.226,0.007-0.401,0.103-0.526,0.287
		c-0.113,0.169-0.14,0.36-0.078,0.577c0.078,0.274,0.412,0.73,0.999,1.368c0.588,0.637,0.99,1.156,1.206,1.56
		c0.216,0.402,0.315,0.821,0.298,1.255s-0.178,0.875-0.481,1.325c-0.275,0.407-0.647,0.714-1.114,0.917
		c-0.467,0.203-0.966,0.251-1.498,0.145c-0.531-0.107-1.106-0.369-1.724-0.787c-0.9-0.607-1.451-1.281-1.652-2.023
		s-0.08-1.543,0.364-2.403l1.49,0.81c-0.233,0.525-0.295,0.986-0.186,1.38c0.108,0.394,0.382,0.739,0.818,1.033
		c0.463,0.313,0.878,0.451,1.245,0.413c0.368-0.037,0.639-0.188,0.816-0.449c0.114-0.168,0.162-0.345,0.143-0.529
		c-0.019-0.186-0.122-0.404-0.309-0.658c-0.129-0.172-0.442-0.534-0.941-1.088c-0.642-0.711-1.024-1.311-1.146-1.799
		c-0.173-0.688-0.069-1.313,0.312-1.875c0.245-0.363,0.576-0.633,0.995-0.81c0.418-0.177,0.877-0.217,1.376-0.121
		c0.498,0.097,1.021,0.329,1.567,0.698c0.894,0.604,1.434,1.254,1.621,1.95C48.657,89.007,48.542,89.689,48.123,90.358z
		 M50.706,98.001l-1.62-0.618l2.54-6.669l-2.382-0.906l0.517-1.358l6.379,2.429l-0.517,1.358l-2.377-0.905L50.706,98.001z
		 M60.042,100.001l-0.47-2.037l-3.399-0.48l-0.976,1.833l-1.821-0.257l4.513-8.038l1.817,0.256l2.204,8.986L60.042,100.001z
		 M70.249,99.082c-0.646,0.362-1.318,0.592-2.019,0.69c-0.889,0.126-1.691,0.048-2.405-0.231c-0.714-0.28-1.287-0.743-1.717-1.391
		s-0.704-1.379-0.818-2.195c-0.125-0.886-0.051-1.699,0.224-2.44c0.274-0.74,0.743-1.346,1.406-1.813
		c0.506-0.359,1.164-0.597,1.977-0.711c1.056-0.149,1.912-0.044,2.568,0.314c0.657,0.359,1.125,0.918,1.405,1.676l-1.66,0.559
		c-0.179-0.4-0.451-0.698-0.816-0.894c-0.365-0.195-0.795-0.257-1.291-0.188c-0.75,0.105-1.313,0.429-1.688,0.966
		c-0.376,0.539-0.497,1.276-0.366,2.212c0.142,1.01,0.474,1.735,0.994,2.177c0.52,0.441,1.144,0.609,1.871,0.508
		c0.359-0.051,0.71-0.172,1.052-0.364c0.341-0.192,0.627-0.407,0.858-0.646l-0.153-1.079l-1.966,0.278l-0.203-1.434l3.702-0.522
		l0.478,3.388C71.372,98.341,70.894,98.721,70.249,99.082z M79.822,95.945l-1.904-1.2c-0.679-0.43-1.128-0.69-1.348-0.783
		c-0.221-0.092-0.428-0.131-0.622-0.115c-0.194,0.016-0.473,0.104-0.837,0.266l-0.321,0.143l1.455,3.277l-1.585,0.704l-3.484-7.852
		l3.337-1.48c0.838-0.373,1.479-0.572,1.922-0.601c0.443-0.027,0.859,0.089,1.247,0.348c0.389,0.259,0.686,0.621,0.892,1.085
		c0.263,0.59,0.305,1.152,0.129,1.689s-0.587,1.01-1.231,1.416c0.431,0.047,0.812,0.141,1.141,0.281s0.818,0.432,1.468,0.874
		l1.638,1.106L79.822,95.945z M88.105,90.136l-1.815-1.037l-2.66,2.171l0.685,1.961l-1.425,1.164l-2.841-8.771l1.42-1.159
		l8.097,4.478L88.105,90.136z M85.458,80.257l5.725,1.996l-3.986-4.562l1.459-2.154l7.111,4.818l-0.904,1.334l-5.597-3.793
		l4.641,5.204l-0.937,1.384l-6.551-2.387l5.599,3.793l-0.904,1.334l-7.111-4.818L85.458,80.257z"/>
	<polygon points="96.008,67.247 97.768,69.007 99.525,67.247 102.014,67.247 102.014,64.759 103.773,63 102.014,61.24 
		102.014,58.753 99.525,58.753 97.768,56.993 96.008,58.753 93.52,58.753 93.52,61.24 91.76,63 93.52,64.759 93.52,67.247 	"/>
	<polygon points="25.383,67.247 27.143,69.007 28.9,67.247 31.389,67.247 31.389,64.759 33.148,63 31.389,61.24 31.389,58.753 
		28.9,58.753 27.143,56.993 25.383,58.753 22.895,58.753 22.895,61.24 21.135,63 22.895,64.759 22.895,67.247 	"/>
	<path d="M69.655,53.643v2.219c0,0.611,0.499,1.11,1.109,1.11h2.219c0.61,0,1.109-0.499,1.109-1.11v-2.219
		c0-0.611-0.499-1.108-1.109-1.108h-2.219C70.154,52.534,69.655,53.032,69.655,53.643z"/>
	<path d="M63,59.397c-0.806,0-1.548,0.237-2.188,0.625c0.2-0.062,0.407-0.104,0.625-0.104c1.185,0,2.144,0.96,2.144,2.146
		c0,1.184-0.958,2.145-2.144,2.145c-1.185,0-2.144-0.961-2.144-2.145c0-0.221,0.043-0.429,0.104-0.626
		c-0.391,0.639-0.625,1.382-0.625,2.188c0,2.337,1.891,4.229,4.229,4.229c2.334,0,4.23-1.893,4.23-4.229
		C67.231,61.288,65.335,59.397,63,59.397z"/>
	<path d="M53.988,49.207c-2.987,0-5.408,2.42-5.408,5.407v18.025c0,2.987,2.42,5.407,5.408,5.407h18.025
		c2.987,0,5.408-2.42,5.408-5.407V54.614c0-2.987-2.42-5.407-5.408-5.407H53.988z M63,70.281c-3.675,0-6.655-2.979-6.655-6.655
		c0-0.22,0.012-0.439,0.033-0.655c0.009-0.09,0.025-0.178,0.038-0.267c0.017-0.122,0.032-0.244,0.055-0.363
		c0.023-0.118,0.054-0.232,0.083-0.348c0.021-0.085,0.041-0.17,0.065-0.254c0.04-0.135,0.087-0.267,0.135-0.398
		c0.021-0.058,0.041-0.117,0.064-0.174c0.059-0.147,0.124-0.291,0.192-0.432c0.018-0.037,0.034-0.073,0.052-0.109
		c0.079-0.155,0.164-0.306,0.254-0.454c0.011-0.018,0.022-0.037,0.034-0.055c0.099-0.157,0.204-0.312,0.314-0.461
		c0.004-0.005,0.009-0.011,0.013-0.017c0.117-0.156,0.24-0.306,0.37-0.451c1.218-1.358,2.982-2.218,4.95-2.218
		s3.732,0.859,4.95,2.218c0.129,0.145,0.252,0.294,0.369,0.449c0.005,0.007,0.011,0.015,0.016,0.022
		c0.11,0.147,0.214,0.3,0.312,0.456c0.012,0.021,0.024,0.041,0.036,0.061c0.089,0.146,0.174,0.296,0.252,0.449
		c0.019,0.038,0.036,0.075,0.054,0.112c0.069,0.141,0.133,0.283,0.191,0.428c0.024,0.059,0.043,0.12,0.065,0.178
		c0.048,0.131,0.094,0.262,0.134,0.396c0.025,0.084,0.044,0.171,0.066,0.256c0.029,0.114,0.06,0.229,0.083,0.346
		c0.023,0.119,0.038,0.241,0.055,0.363c0.013,0.089,0.03,0.177,0.039,0.267c0.021,0.216,0.033,0.436,0.033,0.655
		C69.655,67.303,66.674,70.281,63,70.281z M75.202,54.614v4.575h-4.528c-1.538-2.648-4.397-4.436-7.673-4.436
		c-3.276,0-6.136,1.788-7.673,4.436h-4.528v-4.575c0-1.758,1.431-3.19,3.189-3.19h18.025C73.771,51.424,75.202,52.855,75.202,54.614
		z"/>
</g>
</svg>
