<?xml version="1.0" encoding="utf-8"?>
<!-- Generator: Adobe Illustrator 16.0.0, SVG Export Plug-In . SVG Version: 6.00 Build 0)  -->
<!DOCTYPE svg PUBLIC "-//W3C//DTD SVG 1.1//EN" "http://www.w3.org/Graphics/SVG/1.1/DTD/svg11.dtd">
<svg version="1.1" id="Layer_1" xmlns="http://www.w3.org/2000/svg" xmlns:xlink="http://www.w3.org/1999/xlink" x="0px" y="0px"
	 width="126px" height="126px" viewBox="0 0 126 126" enable-background="new 0 0 126 126" xml:space="preserve">
<g>
	<path fill="#231F20" d="M61.513,9.492c-29.395,0-53.225,23.83-53.225,53.226s23.83,53.226,53.225,53.226
		c29.396,0,53.227-23.83,53.227-53.226S90.909,9.492,61.513,9.492z M61.513,109.747c-25.932,0-47.029-21.097-47.029-47.029
		c0-25.932,21.098-47.029,47.029-47.029s47.029,21.098,47.029,47.029C108.542,88.65,87.444,109.747,61.513,109.747z"/>
	<path fill="#231F20" d="M34.765,38.676c-0.702-0.56-1.35-0.823-1.941-0.79c-0.59,0.033-1.089,0.305-1.496,0.816
		c-0.406,0.51-0.559,1.061-0.457,1.652c0.102,0.591,0.505,1.167,1.212,1.729c0.694,0.553,1.349,0.812,1.962,0.775
		c0.613-0.035,1.117-0.3,1.51-0.793c0.395-0.494,0.539-1.041,0.436-1.641S35.478,39.243,34.765,38.676z"/>
	<path fill="#231F20" d="M50.062,30.814c0.527,0.316,1.092,0.382,1.694,0.195c0.604-0.187,1.031-0.557,1.284-1.11
		c0.252-0.554,0.244-1.265-0.023-2.134c-0.266-0.857-0.652-1.441-1.16-1.746c-0.506-0.307-1.071-0.363-1.695-0.171
		c-0.623,0.192-1.059,0.562-1.309,1.107c-0.25,0.545-0.24,1.249,0.025,2.11C49.14,29.915,49.535,30.498,50.062,30.814z"/>
	<path fill="#231F20" d="M61.513,40.801c9.529,0,17.635,6.084,20.652,14.578h24.613C103.255,33.572,84.3,16.863,61.513,16.863
		S19.771,33.572,16.247,55.379H40.86C43.878,46.885,51.983,40.801,61.513,40.801z M94.603,40.398l0.759,1.341l-2.974,5.373
		l4.555-2.58l0.726,1.279l-6.823,3.864l-0.783-1.383l2.893-5.27l-4.449,2.52l-0.725-1.279L94.603,40.398z M87.093,34.634
		c0.416-0.139,0.844-0.201,1.287-0.188c0.441,0.013,0.844,0.104,1.205,0.271c0.482,0.222,0.938,0.566,1.369,1.037
		c0.78,0.853,1.141,1.776,1.08,2.772c-0.061,0.994-0.561,1.924-1.502,2.785c-0.934,0.855-1.896,1.271-2.89,1.245
		c-0.991-0.024-1.876-0.462-2.653-1.312c-0.788-0.859-1.151-1.783-1.092-2.771c0.061-0.988,0.551-1.904,1.471-2.746
		C85.958,35.189,86.532,34.824,87.093,34.634z M84.406,30.033l-0.679,1.14l-3.635-2.165L79.204,30.5l3.381,2.016l-0.676,1.135
		l-3.383-2.016l-1.09,1.834l3.762,2.242l-0.677,1.135l-5.122-3.053l4.012-6.736L84.406,30.033z M70.042,23.667l2.258,0.721
		l-0.271,5.527l2.967-4.666l2.262,0.722l-2.385,7.47l-1.4-0.447l1.877-5.881l-3.36,5.406l-1.452-0.463l0.399-6.352l-1.876,5.879
		l-1.4-0.447L70.042,23.667z M56.573,23.074l1.369,5.341l1.244-5.433l1.882-0.066l1.565,5.426l1.011-5.516l1.594-0.055l-1.63,7.902
		l-1.678,0.059l-1.766-5.804l-1.352,5.913l-1.715,0.06l-2.146-7.771L56.573,23.074z M47.085,27.572
		c0.051-0.434,0.178-0.848,0.379-1.242c0.2-0.395,0.455-0.719,0.76-0.974c0.406-0.343,0.914-0.607,1.522-0.796
		c1.104-0.342,2.095-0.271,2.968,0.209c0.873,0.479,1.5,1.33,1.876,2.549c0.374,1.209,0.338,2.258-0.108,3.144
		c-0.447,0.886-1.221,1.499-2.32,1.839c-1.113,0.345-2.104,0.279-2.973-0.197c-0.867-0.478-1.484-1.312-1.854-2.504
		C47.099,28.835,47.017,28.161,47.085,27.572z M41.362,28.469l3.147,5.636l3.437-1.919l0.645,1.153l-4.819,2.691l-3.791-6.79
		L41.362,28.469z M31.776,50.742l-7.019-3.495l2.396-4.812l1.188,0.592l-1.691,3.395l1.662,0.827l1.459-2.931l1.188,0.592
		l-1.46,2.93l2.982,1.486L31.776,50.742z M36.616,42.904c-0.726,0.912-1.582,1.416-2.566,1.512
		c-0.985,0.096-1.966-0.245-2.942-1.021c-0.625-0.498-1.075-1.008-1.351-1.533c-0.201-0.389-0.33-0.802-0.387-1.24
		c-0.057-0.439-0.03-0.85,0.078-1.233c0.143-0.511,0.412-1.016,0.811-1.516c0.719-0.903,1.576-1.403,2.568-1.5
		s1.988,0.253,2.986,1.048c0.99,0.788,1.551,1.674,1.683,2.657C37.626,41.06,37.333,42.002,36.616,42.904z M34.274,33.695
		l1.22-1.008l4.111,4.977l3.035-2.508l0.841,1.018l-4.255,3.517L34.274,33.695z"/>
	<path fill="#231F20" d="M87.535,41.013c0.608-0.008,1.249-0.319,1.919-0.934c0.662-0.607,1.023-1.205,1.084-1.794
		s-0.129-1.124-0.57-1.605s-0.961-0.718-1.561-0.71s-1.232,0.315-1.897,0.925c-0.655,0.6-1.013,1.205-1.073,1.817
		c-0.063,0.611,0.121,1.15,0.547,1.615C86.409,40.794,86.927,41.023,87.535,41.013z"/>
	<path fill="#231F20" d="M61.513,84.634c-9.529,0-17.635-6.085-20.652-14.579H16.247c3.523,21.809,22.479,38.518,45.266,38.518
		s41.742-16.709,45.266-38.518H82.165C79.147,78.549,71.042,84.634,61.513,84.634z M48.345,97.367l0.988-6.572l-4.122,5.212
		l-1.725-0.749l1.518-8.572l-0.65,0.738l-1.907-1.681l-4.719,5.355l-1.301-1.146l4.717-5.355l-1.912-1.685l0.959-1.091l5.123,4.512
		l-0.225,0.256l1.565,0.68l-1.162,5.928l3.79-4.786l1.893,0.821l-1.008,6.103l3.598-4.978l1.603,0.695l-5.335,7.048L48.345,97.367z
		 M56.465,99.4l-1.712-0.276l1.367-8.48l1.712,0.276L56.465,99.4z M63.282,99.707l-1.734,0.041l-0.162-7.136l-2.549,0.059
		l-0.033-1.453l6.824-0.156l0.033,1.453l-2.542,0.059L63.282,99.707z M72.333,98.139l-1.67,0.467l-1.924-6.872l-2.455,0.688
		l-0.392-1.399l6.573-1.841l0.393,1.399l-2.449,0.686L72.333,98.139z M77.603,96.208l-4.365-7.398l5.486-3.237l0.738,1.252
		l-3.992,2.355l0.968,1.64l3.714-2.19l0.736,1.246l-3.715,2.191l1.188,2.013l4.133-2.438l0.736,1.246L77.603,96.208z M83.827,80.837
		c0.398-0.194,0.826-0.247,1.285-0.157c0.458,0.091,0.871,0.311,1.24,0.66c0.467,0.443,0.723,0.948,0.766,1.512
		c0.045,0.564-0.154,1.157-0.594,1.779c0.418-0.122,0.805-0.181,1.162-0.178c0.357,0.004,0.922,0.085,1.691,0.244l1.938,0.394
		l-1.428,1.504l-2.219-0.378c-0.791-0.137-1.307-0.206-1.546-0.206c-0.239-0.001-0.444,0.043-0.618,0.132s-0.396,0.278-0.672,0.566
		l-0.242,0.256l2.602,2.468l-1.194,1.259l-6.229-5.914l2.514-2.647C82.913,81.464,83.429,81.034,83.827,80.837z"/>
	<path fill="#231F20" d="M83.597,86.021l0.885-0.931c0.572-0.604,0.904-1.005,0.996-1.203s0.115-0.399,0.072-0.603
		c-0.045-0.203-0.16-0.394-0.348-0.572c-0.209-0.198-0.432-0.303-0.667-0.313s-0.466,0.07-0.694,0.242
		c-0.111,0.089-0.408,0.388-0.893,0.897l-0.932,0.981L83.597,86.021z"/>
	<polygon fill="#231F20" points="94.716,66.964 96.476,68.724 98.233,66.964 100.722,66.964 100.722,64.477 102.481,62.717 
		100.722,60.958 100.722,58.47 98.233,58.47 96.476,56.71 94.716,58.47 92.228,58.47 92.228,60.958 90.468,62.717 92.228,64.477 
		92.228,66.964 	"/>
	<polygon fill="#231F20" points="24.091,66.964 25.851,68.724 27.608,66.964 30.097,66.964 30.097,64.477 31.856,62.717 
		30.097,60.958 30.097,58.47 27.608,58.47 25.851,56.71 24.091,58.47 21.603,58.47 21.603,60.958 19.843,62.717 21.603,64.477 
		21.603,66.964 	"/>
	<polygon fill="#231F20" points="45.026,86.561 45.004,86.685 45.089,86.588 	"/>
	<path fill="#231F20" d="M68.289,62.979c1.507,0,4.386-0.618,4.386-3.378c0-2.756-1.329-4.563-3.109-4.563H58.337
		c-0.012-3.977-0.271-7.939-4.154-7.939c-1.608,0-2.911,0.658-3.461,2.297c-0.721,2.154-0.53,4.676-0.521,6.918
		c0.003,0.426,0.006,0.854,0.006,1.281c0.006,1.469,0.035,2.945,0.041,4.422c0.005,1.589,0.006,3.176,0.006,4.764
		c0,8.895,8.084,11.415,9.635,11.415c1.553,0,7.625,0.144,8.721,0.144c1.1,0,4.247-0.289,4.247-3.475s-2.235-4.327-3.741-4.327
		h-6.03c-4.29,0-4.976-1.899-4.976-3.659c0-0.834,0.053-2.213,0.104-3.899H68.289z"/>
</g>
</svg>
